<svg xmlns="http://www.w3.org/2000/svg" width="40" height="40" viewBox="0 0 40 40"><defs><style>.a,.b{fill:#fff;}.b{font-size:13px;font-family:Apercu;}</style></defs><circle class="a" cx="20" cy="20" r="20"/><path d="M18.472,20.646,16.85,5.2a.635.635,0,0,0-.632-.569h-3.05v-.7a3.931,3.931,0,0,0-7.862,0v.7H2.257a.635.635,0,0,0-.632.569L0,20.646a.635.635,0,0,0,.632.7H17.84a.636.636,0,0,0,.632-.7ZM6.577,3.931a2.66,2.66,0,0,1,5.32,0v.7H6.577ZM1.34,20.077,2.829,5.9H5.307V7.3a.635.635,0,0,0,1.271,0V5.9H11.9V7.3a.635.635,0,1,0,1.271,0V5.9h2.477l1.489,14.18Zm0,0" transform="translate(8.532 7.652)"/><g transform="translate(-437 -373)"><circle cx="6.5" cy="6.5" r="6.5" transform="translate(455 392)"/><text class="b" transform="translate(458 403)"><tspan x="0" y="0">+</tspan></text></g></svg>