<svg xmlns="http://www.w3.org/2000/svg" width="20" height="21.348" viewBox="0 0 20 21.348"><path d="M20,20.646,18.239,5.2a.67.67,0,0,0-.684-.569h-3.3v-.7A4.107,4.107,0,0,0,10,0,4.107,4.107,0,0,0,5.744,3.931v.7h-3.3a.67.67,0,0,0-.684.569L0,20.646a.606.606,0,0,0,.173.492.715.715,0,0,0,.511.21H19.311a.714.714,0,0,0,.511-.21A.6.6,0,0,0,20,20.646ZM7.12,3.931A2.779,2.779,0,0,1,10,1.271a2.779,2.779,0,0,1,2.879,2.66v.7H7.12ZM1.451,20.077,3.063,5.9H5.744V7.3a.69.69,0,0,0,1.375,0V5.9h5.759V7.3a.69.69,0,0,0,1.375,0V5.9h2.682l1.612,14.18Zm0,0" transform="translate(0.001)"/></svg>