<svg xmlns="http://www.w3.org/2000/svg" width="15.258" height="16.432" viewBox="0 0 15.258 16.432"><defs><style>.a{fill:#846853;}</style></defs><g transform="translate(-17.066)"><g transform="translate(17.066)"><path class="a" d="M31.737,2.347H27.629V1.761A1.761,1.761,0,0,0,25.869,0H23.521a1.761,1.761,0,0,0-1.761,1.761v.587H17.653a.587.587,0,1,0,0,1.174h.638L19.413,15.9a.587.587,0,0,0,.587.533H29.39a.587.587,0,0,0,.587-.533L31.1,3.521h.638a.587.587,0,1,0,0-1.174Zm-8.8-.587a.587.587,0,0,1,.587-.587h2.347a.587.587,0,0,1,.587.587v.587H22.934V1.761Zm5.919,13.5H20.536L19.472,3.521H29.921Z" transform="translate(-17.066)"/></g><g transform="translate(21.172 4.693)"><path class="a" d="M138.252,145.255v0l-.587-8.216a.588.588,0,0,0-1.174.083l.587,8.216a.587.587,0,0,0,.587.545h.042A.587.587,0,0,0,138.252,145.255Z" transform="translate(-136.489 -136.49)"/></g><g transform="translate(24.108 4.695)"><path class="a" d="M222.453,136.533a.587.587,0,0,0-.587.587v8.216a.587.587,0,1,0,1.174,0V137.12A.587.587,0,0,0,222.453,136.533Z" transform="translate(-221.866 -136.533)"/></g><g transform="translate(26.454 4.693)"><path class="a" d="M291.3,136.491a.588.588,0,0,0-.628.545l-.587,8.216a.587.587,0,0,0,.542.628h.045a.587.587,0,0,0,.587-.545l.587-8.216A.588.588,0,0,0,291.3,136.491Z" transform="translate(-290.086 -136.489)"/></g></g></svg>